<svg width="117" height="107" viewBox="0 0 117 107" fill="none" xmlns="http://www.w3.org/2000/svg">
<g filter="url(#filter0_dd_11_128)">
<mask id="path-1-outside-1_11_128" maskUnits="userSpaceOnUse" x="4" y="0" width="109" height="99" fill="black">
<rect fill="white" x="4" width="109" height="99"/>
<path d="M43.2158 63.1709C34.5 77 22.5 64.5 23 56.5C21.7842 62.8291 24.5 73.5 33.5 78.5C39 80 45.5 80.5 49.5 75C49.5 75 72.3454 37 75 33.5C80.6884 26 96.5 31.1306 93 45.7383C97.5 39.6306 95.5 28.5 85 21.5C81.5 19.5 69.5 16 64 28.5L43.2158 63.1709Z"/>
<path d="M27.5 91.38C23.3333 86.866 6.49999 55.2679 6.49999 55.2679C4.5 51.757 4.5 46.2399 6.49999 42.2274L28.5 5.61376C28.5 5.61376 32.9071 -1.71745 41 2.10285C49.5 6.11531 46.5 14.1402 46.5 14.1402L24 53.2617C21 60 23.5 72.6761 33 77.838C36 79.468 44 80.3458 47.5 76.8349C50.5 73.324 49.5 74 52.5 70C49 76 51.1667 80.513 53 82.8536C56 86.3645 56 88.3707 53 91.38C42.6 102.214 31.6667 95.894 27.5 91.38Z"/>
<path d="M89.5 7.61998C93.6667 12.134 110.5 43.7321 110.5 43.7321C112.5 47.243 112.5 52.7601 110.5 56.7726L88.5 93.3862C88.5 93.3862 84.0929 100.717 76 96.8971C67.5 92.8847 70.5 84.8598 70.5 84.8598L93 45.7383C97 37.5 93.5 26.3239 84 21.162C81 19.532 74.5 18.5 69 22C67.5577 23.4423 66.5776 23.9601 64.2817 27.9986C64.1921 28.1645 64.0982 28.3317 64 28.5C64.0961 28.3271 64.1899 28.16 64.2817 27.9986C67.3882 22.2496 65.4579 17.948 64 16.1464C61 12.6355 61 10.6293 64 7.61998C74.4 -3.21365 85.3333 3.10597 89.5 7.61998Z"/>
</mask>
<path d="M43.2158 63.1709C34.5 77 22.5 64.5 23 56.5C21.7842 62.8291 24.5 73.5 33.5 78.5C39 80 45.5 80.5 49.5 75C49.5 75 72.3454 37 75 33.5C80.6884 26 96.5 31.1306 93 45.7383C97.5 39.6306 95.5 28.5 85 21.5C81.5 19.5 69.5 16 64 28.5L43.2158 63.1709Z" fill="url(#paint0_radial_11_128)" shape-rendering="crispEdges"/>
<path d="M27.5 91.38C23.3333 86.866 6.49999 55.2679 6.49999 55.2679C4.5 51.757 4.5 46.2399 6.49999 42.2274L28.5 5.61376C28.5 5.61376 32.9071 -1.71745 41 2.10285C49.5 6.11531 46.5 14.1402 46.5 14.1402L24 53.2617C21 60 23.5 72.6761 33 77.838C36 79.468 44 80.3458 47.5 76.8349C50.5 73.324 49.5 74 52.5 70C49 76 51.1667 80.513 53 82.8536C56 86.3645 56 88.3707 53 91.38C42.6 102.214 31.6667 95.894 27.5 91.38Z" fill="url(#paint1_linear_11_128)" shape-rendering="crispEdges"/>
<path d="M89.5 7.61998C93.6667 12.134 110.5 43.7321 110.5 43.7321C112.5 47.243 112.5 52.7601 110.5 56.7726L88.5 93.3862C88.5 93.3862 84.0929 100.717 76 96.8971C67.5 92.8847 70.5 84.8598 70.5 84.8598L93 45.7383C97 37.5 93.5 26.3239 84 21.162C81 19.532 74.5 18.5 69 22C67.5577 23.4423 66.5776 23.9601 64.2817 27.9986C64.1921 28.1645 64.0982 28.3317 64 28.5C64.0961 28.3271 64.1899 28.16 64.2817 27.9986C67.3882 22.2496 65.4579 17.948 64 16.1464C61 12.6355 61 10.6293 64 7.61998C74.4 -3.21365 85.3333 3.10597 89.5 7.61998Z" fill="url(#paint2_linear_11_128)" shape-rendering="crispEdges"/>
<path d="M23 56.5L23.7485 56.5468L22.2635 56.3585L23 56.5ZM43.2158 63.1709L43.8503 63.5708L43.8548 63.5637L43.8591 63.5565L43.2158 63.1709ZM33.5 78.5L33.1358 79.1556L33.2151 79.1997L33.3027 79.2236L33.5 78.5ZM49.5 75L50.1066 75.4411L50.1259 75.4146L50.1428 75.3864L49.5 75ZM75 33.5L75.5976 33.9532L75 33.5ZM85 21.5L85.416 20.876L85.3945 20.8616L85.3721 20.8488L85 21.5ZM64 28.5L64.6433 28.8857L64.6478 28.8779L64 28.5ZM6.49999 55.2679L7.16192 54.9153L7.15693 54.9059L7.15167 54.8967L6.49999 55.2679ZM27.5 91.38L26.9489 91.8887L27.5 91.38ZM53 91.38L52.4688 90.8505L52.4638 90.8555L52.459 90.8606L53 91.38ZM53 82.8536L52.4096 83.316L52.4194 83.3286L52.4298 83.3408L53 82.8536ZM52.5 70L53.1478 70.3779L51.9 69.55L52.5 70ZM47.5 76.8349L48.0311 77.3644L48.0515 77.344L48.0702 77.3221L47.5 76.8349ZM33 77.838L32.6419 78.497L33 77.838ZM24 53.2617L23.3498 52.8878L23.3306 52.9213L23.3148 52.9566L24 53.2617ZM46.5 14.1402L47.1501 14.5141L47.1809 14.4606L47.2025 14.4028L46.5 14.1402ZM6.49999 42.2274L5.85712 41.8412L5.84192 41.8665L5.82876 41.8929L6.49999 42.2274ZM28.5 5.61376L27.8572 5.22735L27.8571 5.22747L28.5 5.61376ZM41 2.10285L40.6798 2.78109V2.78109L41 2.10285ZM110.5 43.7321L109.838 44.0847L109.843 44.0941L109.848 44.1033L110.5 43.7321ZM89.5 7.61998L88.9489 8.12868V8.12869L89.5 7.61998ZM64 7.61998L64.5312 8.14949L64.5362 8.14448L64.541 8.13937L64 7.61998ZM64 16.1464L64.583 15.6746L64.5767 15.6669L64.5702 15.6592L64 16.1464ZM69 22L68.5973 21.3673L68.5279 21.4115L68.4697 21.4697L69 22ZM84 21.162L83.6419 21.821L84 21.162ZM70.5 84.8598L69.8499 84.4859L69.8191 84.5393L69.7975 84.5971L70.5 84.8598ZM110.5 56.7726L111.143 57.1589L111.158 57.1336L111.171 57.1072L110.5 56.7726ZM88.5 93.3862L89.1428 93.7726L89.1429 93.7725L88.5 93.3862ZM76 96.8971L75.6798 97.5754L76 96.8971ZM22.2515 56.4532C22.1149 58.6383 22.8295 61.065 24.0712 63.2346C25.3158 65.4094 27.1271 67.3916 29.2684 68.6659C31.4171 69.9445 33.9286 70.5243 36.5097 69.8106C39.0851 69.0984 41.6053 67.1329 43.8503 63.5708L42.5813 62.771C40.4684 66.1234 38.2201 67.7813 36.1099 68.3648C34.0053 68.9468 31.9138 68.4946 30.0355 67.3768C28.1498 66.2547 26.5101 64.4763 25.3731 62.4895C24.233 60.4975 23.6351 58.3618 23.7485 56.5468L22.2515 56.4532ZM22.2635 56.3585C21.6252 59.6811 22.0241 64.0778 23.7238 68.2797C25.4278 72.4922 28.4596 76.5577 33.1358 79.1556L33.8642 77.8444C29.5404 75.4422 26.7143 71.6723 25.1144 67.7172C23.5101 63.7513 23.159 59.648 23.7365 56.6415L22.2635 56.3585ZM33.3027 79.2236C38.8286 80.7306 45.7993 81.3636 50.1066 75.4411L48.8935 74.5589C45.2007 79.6364 39.1714 79.2693 33.6973 77.7764L33.3027 79.2236ZM49.5 75C50.1428 75.3864 50.1429 75.3863 50.143 75.386C50.1432 75.3857 50.1435 75.3853 50.1438 75.3847C50.1445 75.3835 50.1456 75.3818 50.1469 75.3795C50.1497 75.3749 50.1538 75.368 50.1593 75.3589C50.1703 75.3407 50.1867 75.3134 50.2083 75.2774C50.2516 75.2054 50.3159 75.0986 50.3999 74.959C50.5678 74.6799 50.8144 74.2701 51.1293 73.7473C51.7591 72.7015 52.6617 71.2037 53.7532 69.3954C55.9362 65.7786 58.8743 60.92 61.8953 55.9522C64.9166 50.9841 68.0198 45.9081 70.5331 41.8563C73.0594 37.7835 74.961 34.7925 75.5976 33.9532L74.4024 33.0468C73.7117 33.9575 71.7622 37.0291 69.2584 41.0656C66.7416 45.1231 63.6357 50.2034 60.6137 55.1728C57.5916 60.1425 54.6525 65.0026 52.469 68.6202C51.3772 70.4291 50.4743 71.9273 49.8443 72.9734C49.5294 73.4965 49.2826 73.9065 49.1146 74.1857C49.0306 74.3253 48.9662 74.4323 48.9229 74.5043C48.9012 74.5403 48.8848 74.5676 48.8738 74.5859C48.8683 74.5951 48.8642 74.602 48.8614 74.6066C48.86 74.6089 48.859 74.6106 48.8583 74.6118C48.8579 74.6124 48.8577 74.6128 48.8575 74.6131C48.8573 74.6134 48.8572 74.6135 49.5 75ZM75.5976 33.9532C78.1691 30.5628 83.1159 29.9478 87.103 31.9959C91.0097 34.0028 93.9433 38.5825 92.2706 45.5636L93.7294 45.9131C95.5567 38.2865 92.3345 32.997 87.7884 30.6617C83.3225 28.3676 77.5194 28.9372 74.4024 33.0468L75.5976 33.9532ZM93.6038 46.1832C98.4407 39.6183 96.144 28.0279 85.416 20.876L84.584 22.124C94.8561 28.9721 96.5593 39.643 92.3962 45.2934L93.6038 46.1832ZM85.3721 20.8488C83.5158 19.788 79.4841 18.3592 75.1709 18.8167C70.7897 19.2814 66.1762 21.6918 63.3135 28.198L64.6865 28.8021C67.3238 22.8082 71.4604 20.7186 75.3291 20.3083C79.266 19.8908 82.9843 21.2119 84.6279 22.1512L85.3721 20.8488ZM63.3567 28.1144L42.5725 62.7852L43.8591 63.5565L64.6433 28.8856L63.3567 28.1144ZM6.49999 55.2679C5.83806 55.6206 5.83814 55.6207 5.83827 55.6209C5.8384 55.6212 5.8386 55.6216 5.83886 55.6221C5.83939 55.623 5.84016 55.6245 5.84119 55.6264C5.84325 55.6303 5.84633 55.6361 5.8504 55.6437C5.85855 55.659 5.8707 55.6818 5.88673 55.7118C5.91879 55.7719 5.96639 55.861 6.02864 55.9775C6.15312 56.2103 6.33618 56.5523 6.57059 56.9891C7.03942 57.8627 7.71373 59.1155 8.53588 60.6329C10.1801 63.6676 12.4161 67.7614 14.7828 71.9971C17.1489 76.2317 19.6482 80.6126 21.8183 84.2198C23.9699 87.7963 25.8443 90.692 26.9489 91.8887L28.0511 90.8713C27.0724 89.811 25.2801 87.0642 23.1036 83.4465C20.9456 79.8595 18.4553 75.4945 16.0922 71.2654C13.7297 67.0372 11.497 62.9495 9.85474 59.9184C9.03366 58.4029 8.36031 57.1519 7.89228 56.2798C7.65828 55.8438 7.47561 55.5025 7.35148 55.2703C7.28941 55.1542 7.24199 55.0654 7.21009 55.0056C7.19415 54.9757 7.18208 54.9531 7.17402 54.938C7.16999 54.9304 7.16695 54.9247 7.16493 54.9209C7.16392 54.919 7.16316 54.9176 7.16266 54.9167C7.16241 54.9162 7.16223 54.9159 7.1621 54.9156C7.16198 54.9154 7.16192 54.9153 6.49999 55.2679ZM26.9489 91.8887C29.1143 94.2346 33.0292 97.0495 37.7843 97.8744C42.5932 98.7085 48.1748 97.4895 53.541 91.8994L52.459 90.8606C47.4252 96.1042 42.3402 97.1422 38.0407 96.3964C33.6875 95.6413 30.0524 93.0394 28.0511 90.8713L26.9489 91.8887ZM53.5312 91.9095C55.0658 90.3701 56 88.9313 56 87.3049C56 85.7016 55.0883 84.143 53.5702 82.3663L52.4298 83.3408C53.9117 85.075 54.5 86.2749 54.5 87.3049C54.5 88.3116 53.9342 89.3806 52.4688 90.8505L53.5312 91.9095ZM53.5904 82.3911C52.7262 81.2878 51.7994 79.6917 51.4913 77.6852C51.1855 75.6938 51.4793 73.2382 53.1478 70.3779L51.8522 69.6221C50.0207 72.7618 49.6478 75.5626 50.0087 77.9129C50.3673 80.248 51.4404 82.0787 52.4096 83.316L53.5904 82.3911ZM51.9 69.55C50.383 71.5727 49.8705 72.4233 49.371 73.1923C48.8934 73.9277 48.4147 74.6099 46.9298 76.3476L48.0702 77.3221C49.5853 75.5489 50.1066 74.8137 50.629 74.0094C51.1295 73.2386 51.617 72.4273 53.1 70.45L51.9 69.55ZM46.9688 76.3054C45.4285 77.8505 42.8012 78.499 40.0583 78.5143C37.328 78.5295 34.7136 77.9155 33.3581 77.179L32.6419 78.497C34.2864 79.3905 37.172 80.0304 40.0667 80.0143C42.9488 79.9982 46.0714 79.3302 48.0311 77.3644L46.9688 76.3054ZM33.3581 77.179C28.8162 74.7112 25.9222 70.4324 24.5291 65.9198C23.1312 61.3913 23.2763 56.7313 24.6852 53.5667L23.3148 52.9566C21.7237 56.5304 21.6188 61.5776 23.0959 66.3622C24.5778 71.1627 27.6838 75.803 32.6419 78.497L33.3581 77.179ZM24.6501 53.6356L47.1501 14.5141L45.8498 13.7663L23.3498 52.8878L24.6501 53.6356ZM7.15167 54.8967C5.2906 51.6297 5.26843 46.3795 7.17123 42.562L5.82876 41.8929C3.73157 46.1003 3.7094 51.8844 5.84831 55.6392L7.15167 54.8967ZM7.14287 42.6137L29.1429 6.00004L27.8571 5.22747L5.85712 41.8412L7.14287 42.6137ZM28.5 5.61376C29.1428 6.00017 29.1426 6.00047 29.1425 6.00074C29.1424 6.00079 29.1423 6.00103 29.1422 6.00114C29.1421 6.00136 29.142 6.00146 29.142 6.00146C29.142 6.00146 29.1423 6.00102 29.1428 6.00016C29.1439 5.99844 29.146 5.99502 29.1491 5.98997C29.1554 5.97988 29.1659 5.96328 29.1805 5.94075C29.2098 5.89566 29.2556 5.8269 29.3178 5.73888C29.4422 5.56266 29.6315 5.31034 29.8837 5.01691C30.3901 4.42799 31.1405 3.68519 32.12 3.05703C34.0474 1.82101 36.899 0.996308 40.6798 2.78109L41.3202 1.42462C37.0081 -0.610903 33.6096 0.31985 31.3103 1.79435C30.1764 2.52146 29.3192 3.37269 28.7464 4.03899C28.459 4.37316 28.2407 4.66375 28.0926 4.87353C28.0184 4.97851 27.9616 5.06353 27.9224 5.12397C27.9028 5.15419 27.8875 5.1783 27.8767 5.19572C27.8712 5.20442 27.8669 5.21146 27.8636 5.21676C27.862 5.2194 27.8607 5.22162 27.8596 5.22338C27.8591 5.22427 27.8586 5.22504 27.8582 5.2257C27.858 5.22603 27.8577 5.22645 27.8576 5.22661C27.8574 5.22699 27.8572 5.22735 28.5 5.61376ZM40.6798 2.78109C44.6773 4.66809 45.9096 7.44302 46.1933 9.71895C46.3377 10.8779 46.2369 11.9272 46.0981 12.6893C46.0289 13.069 45.951 13.3736 45.8916 13.5801C45.8619 13.6832 45.8369 13.7615 45.82 13.8122C45.8116 13.8375 45.8052 13.8558 45.8013 13.8669C45.7994 13.8724 45.798 13.8761 45.7974 13.8779C45.797 13.8788 45.7969 13.8792 45.7969 13.8792C45.7969 13.8791 45.797 13.879 45.7971 13.8787C45.7971 13.8786 45.7972 13.8783 45.7972 13.8783C45.7973 13.8779 45.7975 13.8776 46.5 14.1402C47.2025 14.4028 47.2027 14.4024 47.2028 14.402C47.2029 14.4018 47.2031 14.4014 47.2032 14.401C47.2035 14.4002 47.2038 14.3994 47.2042 14.3984C47.2049 14.3964 47.2058 14.3939 47.2069 14.3909C47.2091 14.385 47.2119 14.3771 47.2154 14.3673C47.2223 14.3477 47.2317 14.3205 47.2432 14.2861C47.2661 14.2172 47.2973 14.1192 47.333 13.9951C47.4044 13.747 47.4945 13.3933 47.5738 12.958C47.7319 12.09 47.8498 10.8823 47.6817 9.53347C47.3404 6.79383 45.8227 3.55007 41.3202 1.42462L40.6798 2.78109ZM110.5 43.7321C111.162 43.3795 111.162 43.3793 111.162 43.3791C111.162 43.3788 111.161 43.3784 111.161 43.378C111.161 43.377 111.16 43.3755 111.159 43.3736C111.157 43.3697 111.154 43.364 111.15 43.3563C111.141 43.341 111.129 43.3183 111.113 43.2882C111.081 43.2281 111.034 43.139 110.971 43.0225C110.847 42.7897 110.664 42.4477 110.429 42.0109C109.961 41.1373 109.286 39.8845 108.464 38.3671C106.82 35.3324 104.584 31.2386 102.217 27.003C99.8511 22.7683 97.3518 18.3874 95.1817 14.7802C93.0301 11.2037 91.1557 8.30798 90.0511 7.11128L88.9489 8.12869C89.9276 9.189 91.7199 11.9358 93.8964 15.5535C96.0544 19.1405 98.5447 23.5055 100.908 27.7346C103.27 31.9628 105.503 36.0506 107.145 39.0816C107.966 40.5971 108.64 41.8481 109.108 42.7202C109.342 43.1562 109.524 43.4975 109.649 43.7297C109.711 43.8458 109.758 43.9346 109.79 43.9944C109.806 44.0243 109.818 44.0469 109.826 44.062C109.83 44.0696 109.833 44.0753 109.835 44.0791C109.836 44.081 109.837 44.0824 109.837 44.0833C109.838 44.0838 109.838 44.0842 109.838 44.0844C109.838 44.0846 109.838 44.0847 110.5 43.7321ZM90.0511 7.11128C87.8857 4.76539 83.9708 1.95046 79.2157 1.12565C74.4068 0.29152 68.8252 1.51055 63.459 7.10059L64.541 8.13937C69.5748 2.89579 74.6598 1.8578 78.9593 2.60358C83.3125 3.35867 86.9476 5.96056 88.9489 8.12868L90.0511 7.11128ZM63.4688 7.09048C61.9342 8.62987 61 10.0687 61 11.6951C61 13.2984 61.9117 14.857 63.4298 16.6337L64.5702 15.6592C63.0883 13.925 62.5 12.7251 62.5 11.6951C62.5 10.6884 63.0658 9.61944 64.5312 8.14949L63.4688 7.09048ZM63.417 16.6183C64.7185 18.2265 66.5604 22.204 63.6219 27.6421L64.9415 28.3551C68.216 22.2952 66.1973 17.6694 64.583 15.6746L63.417 16.6183ZM63.6219 27.6421C63.5361 27.8007 63.4463 27.9608 63.3522 28.1221L64.6478 28.8779C64.7501 28.7026 64.848 28.5283 64.9415 28.3551L63.6219 27.6421ZM64.6556 28.8642C64.7506 28.6933 64.8432 28.5284 64.9337 28.3693L63.6297 27.6279C63.5367 27.7916 63.4416 27.9608 63.3444 28.1358L64.6556 28.8642ZM64.9337 28.3693C66.0662 26.3771 66.8571 25.2839 67.5255 24.5194C68.2219 23.7231 68.7436 23.317 69.5303 22.5303L68.4697 21.4697C67.814 22.1253 67.1245 22.6993 66.3964 23.532C65.6402 24.3967 64.7931 25.5816 63.6297 27.6279L64.9337 28.3693ZM69.4027 22.6327C74.6317 19.3052 80.8354 20.2961 83.6419 21.821L84.3581 20.503C81.1646 18.7678 74.3683 17.6948 68.5973 21.3673L69.4027 22.6327ZM83.6419 21.821C92.8215 26.8088 96.1348 37.5647 92.3253 45.4107L93.6747 46.0659C97.8652 37.4353 94.1785 25.839 84.3581 20.503L83.6419 21.821ZM92.3499 45.3644L69.8499 84.4859L71.1501 85.2337L93.6501 46.1122L92.3499 45.3644ZM109.848 44.1033C111.709 47.3704 111.732 52.6205 109.829 56.438L111.171 57.1072C113.268 52.8997 113.291 47.1156 111.152 43.3609L109.848 44.1033ZM109.857 56.3863L87.8571 93L89.1429 93.7725L111.143 57.1589L109.857 56.3863ZM88.5 93.3862C87.8572 92.9998 87.8574 92.9995 87.8575 92.9993C87.8576 92.9992 87.8577 92.999 87.8578 92.9989C87.8579 92.9986 87.858 92.9985 87.858 92.9985C87.858 92.9985 87.8577 92.999 87.8572 92.9998C87.8561 93.0016 87.854 93.005 87.8509 93.01C87.8446 93.0201 87.8341 93.0367 87.8195 93.0592C87.7902 93.1043 87.7444 93.1731 87.6822 93.2611C87.5578 93.4373 87.3685 93.6897 87.1162 93.9831C86.6099 94.572 85.8595 95.3148 84.88 95.943C82.9526 97.179 80.101 98.0037 76.3202 96.2189L75.6798 97.5754C79.9919 99.6109 83.3904 98.6801 85.6897 97.2056C86.8236 96.4785 87.6808 95.6273 88.2536 94.961C88.541 94.6268 88.7593 94.3362 88.9074 94.1265C88.9816 94.0215 89.0384 93.9365 89.0776 93.876C89.0972 93.8458 89.1125 93.8217 89.1233 93.8043C89.1288 93.7956 89.1331 93.7885 89.1364 93.7832C89.138 93.7806 89.1393 93.7784 89.1404 93.7766C89.1409 93.7757 89.1414 93.775 89.1418 93.7743C89.142 93.774 89.1423 93.7736 89.1424 93.7734C89.1426 93.773 89.1428 93.7726 88.5 93.3862ZM76.3202 96.2189C72.3227 94.3319 71.0904 91.557 70.8067 89.281C70.6623 88.1221 70.7631 87.0727 70.9019 86.3107C70.9711 85.931 71.049 85.6264 71.1084 85.4199C71.1381 85.3168 71.1631 85.2384 71.18 85.1878C71.1884 85.1625 71.1948 85.1442 71.1987 85.1331C71.2006 85.1276 71.202 85.1239 71.2026 85.1221C71.2029 85.1212 71.2031 85.1208 71.2031 85.1208C71.2031 85.1209 71.203 85.121 71.2029 85.1213C71.2029 85.1214 71.2028 85.1217 71.2028 85.1217C71.2026 85.1221 71.2025 85.1224 70.5 84.8598C69.7975 84.5971 69.7973 84.5975 69.7972 84.598C69.7971 84.5982 69.7969 84.5986 69.7968 84.599C69.7965 84.5998 69.7962 84.6006 69.7958 84.6016C69.7951 84.6036 69.7942 84.6061 69.7931 84.6091C69.7909 84.615 69.7881 84.6229 69.7846 84.6327C69.7777 84.6523 69.7683 84.6795 69.7568 84.7139C69.7339 84.7828 69.7027 84.8808 69.667 85.0049C69.5956 85.253 69.5055 85.6067 69.4262 86.042C69.2681 86.91 69.1502 88.1177 69.3183 89.4665C69.6597 92.2062 71.1773 95.4499 75.6798 97.5754L76.3202 96.2189Z" fill="black" mask="url(#path-1-outside-1_11_128)"/>
</g>
<path d="M56.613 26.1091C55.7612 26.4336 55.457 26.7885 54.3315 28.7254C52.9828 31.0374 52.6786 31.3619 51.1474 31.9601C48.6224 32.964 46.6957 34.2417 44.8096 36.1887C43.0858 37.9531 41.9095 39.7885 40.9664 42.1411C40.5912 43.0842 40.1856 43.7027 39.6684 44.1286C39.4555 44.2909 38.5124 44.879 37.5694 45.4266C36.1497 46.248 35.7847 46.5116 35.5109 46.8969C34.8213 47.8501 34.8315 49.1481 35.5312 50.0912C35.8151 50.4866 36.1903 50.7503 37.6201 51.5818C38.5733 52.1395 39.5163 52.7277 39.709 52.8798C40.1957 53.2854 40.6014 53.9141 40.9664 54.8166C41.9095 57.1996 43.0959 59.0451 44.8603 60.84C46.5335 62.5537 48.4297 63.8618 50.5491 64.7542C52.7901 65.6972 52.9828 65.8797 54.4024 68.354C55.2339 69.7939 55.4976 70.1793 55.8728 70.4531C56.7449 71.0919 57.7285 71.173 58.702 70.6863C59.4321 70.3212 59.5436 70.1894 60.6388 68.2627C61.9367 66.0014 62.3119 65.6262 63.8431 65.0178C66.4391 63.9835 68.3556 62.6957 70.3127 60.6574C71.8845 59.0046 73.152 57.017 74.0342 54.8166C74.6325 53.3057 75.028 52.9102 77.269 51.6325C79.1856 50.5475 79.3275 50.4359 79.6926 49.6957C80.1286 48.8338 80.1286 48.1442 79.6926 47.2823C79.3275 46.5522 79.1957 46.4406 77.269 45.3455C75.0179 44.0576 74.6325 43.6723 74.0241 42.1614C72.6247 38.6427 70.333 35.7831 67.23 33.7144C66.3782 33.1364 64.7963 32.3353 63.7316 31.9196C62.9204 31.6052 62.1903 31.1083 61.8252 30.6216C61.6832 30.4391 61.1255 29.5366 60.5881 28.6138C60.0506 27.691 59.5436 26.8697 59.4625 26.7784C59.3814 26.6871 59.0772 26.4843 58.7932 26.3322C58.1949 26.0077 57.1505 25.8962 56.613 26.1091ZM57.9212 27.975C58.0023 28.0764 58.4789 28.8673 58.9758 29.7293C59.716 31.0272 60.0202 31.443 60.6895 32.1122C61.5413 32.964 61.6832 33.0452 63.904 33.9882C65.2729 34.5764 66.4594 35.3775 66.4999 35.7324C66.5303 35.9453 66.4796 36.0366 66.287 36.1278C66.0842 36.2191 65.9523 36.1887 65.5467 35.9859C64.1068 35.2659 61.8455 34.6068 59.9898 34.3837C58.7425 34.2316 56.1364 34.3127 54.9602 34.5459C52.3845 35.0428 50.0319 36.0467 47.9633 37.5171C46.858 38.2979 44.8806 40.2347 44.2113 41.1778C43.9578 41.5327 43.6536 41.9484 43.5319 42.0904C43.3291 42.3338 43.3088 42.3439 43.2379 42.1614C43.0858 41.7659 44.4953 39.393 45.773 37.9227C47.2535 36.1988 49.4641 34.6169 51.5631 33.7753C52.9017 33.248 53.4898 32.9133 54.1489 32.3049C54.879 31.6154 55.0818 31.3416 56.1263 29.5264C57.0592 27.904 57.1403 27.8026 57.4953 27.8026C57.6474 27.8026 57.84 27.8837 57.9212 27.975ZM61.2979 36.5842C64.7051 37.1216 67.6559 38.9773 69.4305 41.6949C70.4952 43.3275 70.8907 43.8345 71.4586 44.2807C71.7628 44.5139 73.2331 45.4063 74.7136 46.2581C76.2043 47.1099 77.5023 47.8806 77.6037 47.9617C77.8065 48.1442 77.8369 48.7222 77.6544 48.8642C77.5834 48.925 76.3868 49.4827 74.9874 50.1114C73.5982 50.73 72.2394 51.379 71.9757 51.5514C71.3268 51.957 70.4141 52.9609 69.897 53.8127C69.0654 55.2121 67.7066 56.7128 66.3681 57.7269C64.9687 58.7815 62.8291 59.8361 62.4742 59.6535C62.17 59.4812 62.1598 59.3088 62.4235 58.4671C63.5186 54.9687 62.7784 51.7947 60.1115 48.5802C59.7363 48.1341 58.8135 47.0896 58.0428 46.2581C55.7308 43.7433 54.9196 42.4757 54.6458 40.9749C54.4126 39.6871 54.8081 38.308 55.6396 37.4765C56.684 36.4219 58.4586 36.1481 61.2979 36.5842ZM52.7191 37.5272C52.8003 37.6692 52.78 37.872 52.638 38.2776C52.06 39.9305 51.9079 42.0093 52.2527 43.4391C52.8104 45.7511 53.8549 47.3634 56.9375 50.7097C59.2597 53.2347 59.9999 54.3704 60.3143 55.8915C60.6996 57.7472 59.9289 59.4305 58.3673 60.1606C57.3634 60.627 56.1871 60.7081 54.0779 60.4445C50.3057 59.9882 47.0101 57.8587 45.1645 54.705C44.5865 53.7113 43.9883 53.0116 43.2683 52.5147C42.9235 52.2713 41.5039 51.4196 40.1045 50.6185C38.7152 49.8174 37.4883 49.0974 37.397 49.0163C37.184 48.8439 37.1536 48.2557 37.3463 48.1138C37.4071 48.0529 38.5631 47.5155 39.9017 46.9172C41.2402 46.3189 42.5889 45.6699 42.9032 45.4874C43.6029 45.0717 44.5764 44.0475 45.0124 43.2768C46.28 41.0764 48.6731 38.9063 51.1068 37.7503C52.0701 37.294 52.567 37.223 52.7191 37.5272ZM71.7932 54.9585C71.7932 55.1816 71.0124 56.6317 70.404 57.5342C69.106 59.471 67.1692 61.2354 64.989 62.4624C64.6848 62.6348 63.8938 63.01 63.2347 63.2838C62.5756 63.5576 61.8252 63.9328 61.5514 64.1052C60.6996 64.6528 59.9391 65.5857 58.9758 67.2588C58.4789 68.1208 58.0023 68.9016 57.9212 68.9928C57.7386 69.2058 57.2924 69.2362 57.0998 69.0436C57.0288 68.9827 56.5522 68.1918 56.0452 67.3095C54.6154 64.8251 53.9056 64.166 51.695 63.2534C50.5491 62.7768 49.5655 62.2596 48.8861 61.7729C48.4196 61.4281 48.3283 61.0428 48.6731 60.8603C48.8455 60.769 49.099 60.84 50.0725 61.2557C51.4009 61.8236 52.6481 62.2089 53.9968 62.4624C55.3049 62.7058 58.7121 62.6957 59.9797 62.4422C64.5834 61.5295 68.1934 59.2682 70.8907 55.6278C71.56 54.7253 71.7932 54.5529 71.7932 54.9585Z" fill="white" fill-opacity="0.51"/>
<path d="M61.2979 36.5842C64.7051 37.1216 67.6559 38.9773 69.4305 41.6949C70.4952 43.3275 70.8907 43.8345 71.4586 44.2807C71.7628 44.5139 73.2331 45.4063 74.7136 46.2581C76.2043 47.1099 77.5023 47.8806 77.6037 47.9617C77.8065 48.1442 77.8369 48.7222 77.6544 48.8642C77.5834 48.925 76.3868 49.4827 74.9874 50.1114C73.5982 50.73 72.2394 51.379 71.9757 51.5514C71.3268 51.957 70.4141 52.9609 69.897 53.8127C69.0654 55.2121 67.7066 56.7128 66.3681 57.7269C64.9687 58.7815 62.8291 59.8361 62.4742 59.6535C62.17 59.4812 62.1598 59.3088 62.4235 58.4671C63.5186 54.9687 62.7784 51.7947 60.1115 48.5802C59.7363 48.1341 58.8135 47.0896 58.0428 46.2581C55.7308 43.7433 54.9196 42.4757 54.6458 40.9749C54.4126 39.6871 54.8081 38.308 55.6396 37.4765C56.684 36.4219 58.4586 36.1481 61.2979 36.5842Z" fill="black"/>
<path d="M52.7191 37.5272C52.8003 37.6692 52.78 37.872 52.638 38.2776C52.06 39.9305 51.9079 42.0093 52.2527 43.4391C52.8104 45.7511 53.8549 47.3634 56.9375 50.7097C59.2597 53.2347 59.9999 54.3704 60.3143 55.8915C60.6996 57.7472 59.9289 59.4305 58.3673 60.1606C57.3634 60.627 56.1871 60.7081 54.0779 60.4445C50.3057 59.9882 47.0101 57.8587 45.1645 54.705C44.5865 53.7113 43.9883 53.0116 43.2683 52.5147C42.9235 52.2713 41.5039 51.4196 40.1045 50.6185C38.7152 49.8174 37.4883 49.0974 37.397 49.0163C37.184 48.8439 37.1536 48.2557 37.3463 48.1138C37.4071 48.0529 38.5631 47.5155 39.9017 46.9172C41.2402 46.3189 42.5889 45.6699 42.9032 45.4874C43.6029 45.0717 44.5764 44.0475 45.0124 43.2768C46.28 41.0764 48.6731 38.9063 51.1068 37.7503C52.0701 37.294 52.567 37.223 52.7191 37.5272Z" fill="white"/>
<path d="M70.1113 53.9414C69.2624 55.3696 67.8817 56.8939 66.5191 57.9261L66.5186 57.9265C65.8046 58.4646 64.9061 58.9998 64.1402 59.3783C63.7576 59.5673 63.4015 59.7205 63.1137 59.8153C62.9705 59.8624 62.8367 59.8976 62.7209 59.914C62.6191 59.9283 62.4784 59.9368 62.3598 59.8759L62.3598 59.8761L62.3509 59.8711C62.2629 59.8212 62.17 59.7573 62.0999 59.6625C62.0254 59.5617 61.9917 59.4473 61.9861 59.3225C61.9762 59.1001 62.0566 58.8019 62.1849 58.3924C62.7206 56.681 62.8051 55.0585 62.4348 53.4741C62.0642 51.888 61.2343 50.3252 59.9195 48.7404C59.5471 48.2976 58.6277 47.2569 57.8595 46.428L57.8588 46.4273C55.5452 43.9108 54.6876 42.5972 54.3999 41.0198L54.3998 41.0195C54.1538 39.6611 54.5664 38.1966 55.4621 37.3004C56.5988 36.1528 58.4874 35.8996 61.3359 36.3371L61.3369 36.3372C64.809 36.8849 67.824 38.7774 69.6398 41.5582L69.6399 41.5583C70.7063 43.1935 71.0817 43.6664 71.6118 44.0832M70.1113 53.9414C70.1115 53.941 70.1117 53.9407 70.1119 53.9404L69.897 53.8127L70.1106 53.9424C70.1109 53.9421 70.1111 53.9417 70.1113 53.9414ZM70.1113 53.9414C70.3598 53.5322 70.7065 53.0817 71.0712 52.6836C71.4384 52.2829 71.8112 51.949 72.1082 51.7634L72.1126 51.7607L72.1125 51.7606C72.2271 51.6857 72.6145 51.4885 73.1673 51.2243C73.7113 50.9643 74.3963 50.6483 75.0891 50.3398L75.0899 50.3395C75.7903 50.0248 76.4405 49.7277 76.9249 49.5014C77.1669 49.3883 77.3685 49.2924 77.5146 49.2208C77.5875 49.185 77.648 49.1545 77.6935 49.1305C77.7161 49.1186 77.7367 49.1074 77.754 49.0973L77.7541 49.0972C77.7648 49.091 77.7885 49.0771 77.8107 49.0593M77.8107 49.0593C77.8097 49.06 77.8088 49.0608 77.8078 49.0615L77.6544 48.8642L77.8171 49.054C77.815 49.0558 77.8128 49.0575 77.8107 49.0593ZM77.8107 49.0593C77.9178 48.9745 77.9688 48.8501 77.9942 48.7507C78.0214 48.6439 78.0293 48.5264 78.0231 48.4145C78.017 48.3019 77.9961 48.1847 77.959 48.0777C77.9229 47.974 77.8647 47.8603 77.7709 47.7759L77.7655 47.771L77.7598 47.7665C77.7185 47.7334 77.5995 47.6592 77.449 47.5675C77.2884 47.4698 77.069 47.3386 76.8068 47.1836C76.2822 46.8737 75.584 46.4675 74.8378 46.0411M74.8378 46.0411C74.8379 46.0412 74.8381 46.0413 74.8383 46.0414L74.7136 46.2581L74.8377 46.041C74.8377 46.041 74.8377 46.0411 74.8378 46.0411ZM74.8378 46.0411C73.3527 45.1867 71.9022 44.3052 71.6118 44.0832M71.6118 44.0832C71.6122 44.0835 71.6126 44.0838 71.613 44.0841L71.4586 44.2807L71.6107 44.0823C71.611 44.0826 71.6114 44.0829 71.6118 44.0832ZM59.1923 67.3837L59.1924 67.3836C60.1505 65.7195 60.8863 64.8303 61.6856 64.3161C61.9432 64.1542 62.678 63.7858 63.3306 63.5147C63.9936 63.2393 64.7948 62.8598 65.1119 62.6801C65.112 62.6801 65.1122 62.68 65.1123 62.6799L64.989 62.4624L59.1923 67.3837ZM59.1923 67.3837C58.943 67.8161 58.6987 68.2286 58.5061 68.5449C58.4099 68.7029 58.326 68.8378 58.2607 68.9396C58.2019 69.0312 58.1459 69.1158 58.1095 69.1573C57.9605 69.3298 57.7307 69.407 57.5302 69.4198C57.3321 69.4325 57.092 69.3864 56.9267 69.224C56.8947 69.1937 56.8666 69.1543 56.8514 69.133L56.8514 69.133C56.8275 69.0995 56.7988 69.0566 56.7666 69.007C56.702 68.9075 56.6185 68.7729 56.5222 68.6142C56.3295 68.2964 56.0826 67.8764 55.8285 67.4342C55.1154 66.1951 54.5958 65.4372 53.9924 64.875C53.3927 64.316 52.6952 63.9368 51.5995 63.4845L51.5989 63.4842M59.1923 67.3837L51.5989 63.4842M51.5989 63.4842C50.4434 63.0036 49.441 62.478 48.7405 61.9761L48.7404 61.9761M51.5989 63.4842L48.7404 61.9761M48.7404 61.9761L48.7375 61.9739M48.7404 61.9761L48.7375 61.9739M48.7375 61.9739C48.4833 61.7861 48.2895 61.5584 48.232 61.3128C48.2018 61.1842 48.2092 61.0482 48.2705 60.9221C48.3311 60.7973 48.4338 60.7041 48.5561 60.6393C48.7294 60.5476 48.9154 60.5638 49.1403 60.6273C49.365 60.6907 49.6866 60.8191 50.1707 61.0258L50.1708 61.0259M48.7375 61.9739L50.1708 61.0259M50.1708 61.0259C51.4835 61.587 52.7132 61.9668 54.0427 62.2167C54.6721 62.3338 55.8309 62.3924 57.0026 62.3886C58.175 62.3848 59.3226 62.3186 59.9306 62.197L59.931 62.1969M50.1708 61.0259L59.931 62.1969M59.931 62.1969C64.4759 61.296 68.0307 59.0678 70.6898 55.479L70.6899 55.4789M59.931 62.1969L70.6899 55.4789M70.6899 55.4789C70.8586 55.2514 71.0023 55.0665 71.1234 54.9237C71.2415 54.7845 71.3488 54.6724 71.4441 54.6018C71.4907 54.5673 71.5525 54.5287 71.6253 54.5111C71.7081 54.4911 71.8151 54.4974 71.9058 54.5726C71.9828 54.6364 72.0122 54.7216 72.0251 54.776C72.0391 54.8351 72.0432 54.8984 72.0432 54.9585C72.0432 55.0354 72.0154 55.1205 71.9938 55.1807M70.6899 55.4789L71.9938 55.1807M71.9938 55.1807C71.9679 55.2526 71.932 55.3381 71.8892 55.4319M71.9938 55.1807L71.8892 55.4319M71.8892 55.4319C71.8033 55.6202 71.6839 55.8559 71.5468 56.1102M71.8892 55.4319L71.5468 56.1102M71.5468 56.1102C71.2727 56.6187 70.9212 57.2143 70.6113 57.674L71.5468 56.1102ZM56.7051 26.3416L56.702 26.3428C56.3053 26.4939 56.0539 26.643 55.7635 26.9767C55.4587 27.327 55.1128 27.8784 54.5476 28.851L54.5474 28.8513C53.8768 30.001 53.4483 30.6891 52.9864 31.1604C52.5123 31.6442 52.0126 31.8904 51.2389 32.1928C48.7465 33.1838 46.85 34.4418 44.9892 36.3626L44.9884 36.3634C43.2888 38.103 42.1301 39.9102 41.1987 42.2336C40.8151 43.1978 40.3893 43.8588 39.8274 44.3216L39.8275 44.3217L39.82 44.3275C39.5922 44.501 38.6347 45.0971 37.6949 45.6428L37.6946 45.643C36.2619 46.4719 35.9508 46.7094 35.7147 47.0417L35.7134 47.0435C35.088 47.9081 35.097 49.0865 35.7319 49.9422L35.732 49.9422L35.7342 49.9454C35.9806 50.2885 36.3018 50.5259 37.7458 51.3657L37.7463 51.366C38.2248 51.646 38.7008 51.9336 39.0818 52.1706C39.4564 52.4036 39.7541 52.5969 39.8639 52.6835L39.864 52.6835L39.8691 52.6877C40.4004 53.1305 40.8256 53.8016 41.1982 54.7228L41.1989 54.7246C42.1301 57.0776 43.2985 58.8946 45.0386 60.6647L45.0392 60.6653C46.6903 62.3564 48.559 63.645 50.6461 64.5237C51.7598 64.9924 52.4109 65.289 52.9545 65.7973C53.4931 66.3008 53.9147 67.0015 54.619 68.229C55.4599 69.6853 55.697 70.0153 56.0202 70.2511L56.0205 70.2514C56.8164 70.8344 57.6998 70.9079 58.5902 70.4627C58.9419 70.2868 59.1152 70.1822 59.3384 69.9038C59.579 69.6036 59.8696 69.1099 60.4214 68.1392L60.422 68.1383C61.0687 67.0116 61.5019 66.3239 61.9757 65.8447C62.46 65.3549 62.9756 65.0935 63.7508 64.7855C66.3132 63.7645 68.1996 62.497 70.1319 60.4848C71.6807 58.856 72.9311 56.896 73.8019 54.7244C74.1053 53.9581 74.3692 53.4431 74.8601 52.9591C75.3406 52.4853 76.028 52.0523 77.1452 51.4153L77.1459 51.4149C78.1119 50.8681 78.6052 50.5801 78.9066 50.3394C79.1859 50.1164 79.2929 49.9409 79.4683 49.5851L79.4695 49.5828C79.6752 49.1762 79.7696 48.8272 79.7696 48.489C79.7696 48.1508 79.6752 47.8018 79.4695 47.3951L79.469 47.3941C79.2931 47.0423 79.1885 46.869 78.91 46.6458C78.6099 46.4052 78.1162 46.1146 77.1455 45.5628L77.1449 45.5625C76.0229 44.9206 75.3356 44.4876 74.8553 44.0153C74.3645 43.5328 74.1005 43.0205 73.7922 42.2548L73.7918 42.2538C72.4107 38.781 70.151 35.9622 67.0914 33.9224L67.0897 33.9213C66.2564 33.3559 64.6919 32.5629 63.6407 32.1525C62.8048 31.8284 62.0294 31.3095 61.6264 30.7732C61.4697 30.5705 60.9043 29.6535 60.372 28.7396C60.1042 28.2797 59.8441 27.8454 59.6412 27.5152C59.5396 27.3499 59.4529 27.2116 59.387 27.1096C59.354 27.0584 59.3269 27.0175 59.3061 26.9872C59.296 26.9726 59.2887 26.9623 59.2837 26.9555C59.2775 26.947 59.275 26.9438 59.2755 26.9443L59.2755 26.9443C59.2753 26.9441 59.275 26.9438 59.2745 26.9433L59.2709 26.9397C59.2676 26.9365 59.2631 26.9324 59.2573 26.9273C59.2456 26.917 59.2302 26.9044 59.2109 26.8895C59.1724 26.8598 59.1228 26.8245 59.0652 26.7861C58.9501 26.7094 58.8099 26.6248 58.6752 26.5526L58.674 26.552C58.4121 26.4099 58.0357 26.3074 57.6545 26.2678C57.2692 26.2278 56.9201 26.2564 56.7051 26.3416ZM67.23 33.7144C70.333 35.7831 72.6247 38.6427 74.0241 42.1614L63.7316 31.9196C64.7963 32.3353 66.3782 33.1364 67.23 33.7144ZM58.108 27.8089L58.1083 27.8086L58.1164 27.8188C58.1477 27.8579 58.2011 27.9405 58.2621 28.0379C58.3271 28.1416 58.4107 28.2783 58.5068 28.438C58.6991 28.7577 58.9432 29.1723 59.1923 29.6044L59.1929 29.6054C59.9271 30.8927 60.2186 31.2878 60.8663 31.9355C61.2899 32.3591 61.5193 32.5726 61.9093 32.8C62.3119 33.0348 62.8851 33.284 64.0017 33.7581L64.0027 33.7585C64.6994 34.0578 65.3522 34.4123 65.8397 34.7403C66.0827 34.9039 66.2908 35.065 66.4438 35.2134C66.5202 35.2875 66.5876 35.3631 66.6392 35.4385C66.6878 35.5096 66.7353 35.5991 66.7478 35.6998C66.7652 35.8231 66.7679 35.9638 66.6969 36.0948C66.6256 36.2265 66.5055 36.301 66.394 36.3538L66.394 36.3538L66.3896 36.3558C66.2507 36.4183 66.114 36.4459 65.9444 36.4124C65.7977 36.3834 65.6349 36.3095 65.4349 36.2095C64.0237 35.5038 61.7906 34.852 59.96 34.6319L59.9595 34.6319C59.3547 34.5581 58.4062 34.5399 57.4563 34.5702C56.5057 34.6005 55.5765 34.6786 55.0088 34.7912L55.0075 34.7914C52.4662 35.2817 50.147 36.2716 48.1081 37.7208L48.1075 37.7213C47.5709 38.1003 46.8113 38.769 46.0985 39.4654C45.3844 40.163 44.7362 40.8701 44.4152 41.3224L44.4148 41.3231C44.1645 41.6734 43.854 42.0984 43.7228 42.2518C43.6738 42.3106 43.6286 42.3641 43.5894 42.4044C43.5693 42.425 43.5454 42.4477 43.5186 42.4678C43.4934 42.4868 43.4523 42.5136 43.3979 42.5277C43.3358 42.5437 43.2651 42.5405 43.1983 42.5077C43.1392 42.4786 43.1026 42.4357 43.0823 42.4075C43.0456 42.3565 43.0206 42.2924 43.0049 42.252L43.0045 42.2511C42.9772 42.1801 42.9743 42.1078 42.9776 42.0503C42.9811 41.9902 42.9926 41.9274 43.0082 41.8652C43.0394 41.7409 43.0928 41.5961 43.1608 41.4394C43.2974 41.1249 43.5051 40.7351 43.7545 40.317C44.2535 39.4807 44.9335 38.5076 45.5838 37.7592C47.0904 36.0052 49.3339 34.3998 51.4701 33.5432L51.4715 33.5427C52.7958 33.021 53.3519 32.7002 53.9784 32.1221C54.3374 31.783 54.5574 31.5549 54.8163 31.1925C55.0805 30.8227 55.3862 30.3113 55.9096 29.4018C56.3709 28.5995 56.6358 28.1473 56.8318 27.9006C56.9326 27.7737 57.0331 27.6772 57.154 27.6187C57.2783 27.5586 57.3965 27.5526 57.4953 27.5526C57.6114 27.5526 57.7301 27.5824 57.8296 27.6232C57.9262 27.6628 58.0327 27.7242 58.108 27.8089ZM71.3065 44.4791L71.3041 44.4773C70.6992 44.002 70.2833 43.4602 69.2211 41.8315C67.4879 39.1772 64.6014 37.3585 61.2594 36.8312C58.4298 36.3967 56.7693 36.691 55.8172 37.6524L55.8163 37.6533C55.0495 38.4201 54.6715 39.7133 54.8917 40.9301C55.1515 42.3542 55.9164 43.5756 58.2265 46.0885C58.9991 46.9221 59.9245 47.9694 60.3028 48.4193L60.3039 48.4206C61.6558 50.0501 62.5293 51.6814 62.9217 53.3603C63.3145 55.0411 63.2215 56.7548 62.6621 58.5418L62.6621 58.5419C62.5267 58.974 62.4804 59.1828 62.4856 59.3001C62.4877 59.3452 62.4971 59.3588 62.5018 59.3651C62.5099 59.376 62.5284 59.3947 62.5769 59.4241C62.5863 59.4244 62.6093 59.4248 62.6511 59.4189C62.7257 59.4083 62.8282 59.3829 62.9574 59.3404C63.2143 59.2557 63.5472 59.1136 63.9187 58.93C64.6612 58.5631 65.5322 58.0438 66.2175 57.5273C67.5315 56.5317 68.8679 55.055 69.682 53.685L69.6833 53.6829C69.9518 53.2406 70.3198 52.7637 70.7026 52.3458C71.0826 51.931 71.4898 51.5607 71.8413 51.3406C71.9925 51.2424 72.4146 51.0298 72.9517 50.7732C73.5001 50.5111 74.1888 50.1934 74.885 49.8834C75.5839 49.5694 76.2317 49.2733 76.7132 49.0484C76.9541 48.9358 77.1524 48.8415 77.2944 48.7719C77.3655 48.737 77.421 48.709 77.4601 48.6884C77.475 48.6805 77.4865 48.6742 77.495 48.6694C77.4983 48.6629 77.5039 48.6499 77.5097 48.6271C77.5218 48.5799 77.5279 48.5149 77.5239 48.4418C77.5199 48.3693 77.5065 48.2989 77.4867 48.2418C77.4692 48.1914 77.4512 48.1643 77.4413 48.1527C77.4323 48.1465 77.4125 48.1334 77.3776 48.1113C77.3314 48.0819 77.268 48.0427 77.1889 47.9946C77.031 47.8984 76.8137 47.7685 76.5524 47.6141C76.0301 47.3055 75.334 46.9005 74.5896 46.4752L74.589 46.4748C73.1151 45.6268 71.627 44.7249 71.3065 44.4791ZM52.5021 37.6512L52.5017 37.6514L52.4955 37.639C52.487 37.622 52.4785 37.6134 52.4561 37.6056C52.4248 37.5946 52.3624 37.5857 52.2517 37.6012C52.028 37.6324 51.6919 37.7498 51.2141 37.9761C48.8236 39.1116 46.4703 41.2473 45.2295 43.4008C44.9981 43.8095 44.6315 44.2744 44.2377 44.6877C43.8444 45.1004 43.4082 45.4782 43.0309 45.7024L43.0288 45.7036C42.7009 45.894 41.3397 46.5483 40.0037 47.1455C39.3352 47.4442 38.7129 47.7276 38.2507 47.9435C38.0193 48.0516 37.8293 48.1423 37.694 48.2093C37.6261 48.2429 37.5738 48.2697 37.5377 48.2893C37.5216 48.298 37.5104 48.3044 37.5034 48.3086L37.5018 48.3097C37.4992 48.3141 37.492 48.3273 37.4844 48.3554C37.4718 48.4023 37.4652 48.4673 37.4692 48.54C37.4731 48.6123 37.4869 48.6816 37.507 48.7368C37.5284 48.7955 37.5496 48.8181 37.5543 48.822L37.5545 48.8218L37.5631 48.8294C37.5605 48.8271 37.561 48.8275 37.5665 48.8312C37.5737 48.8362 37.5895 48.847 37.618 48.8654C37.6606 48.8929 37.7195 48.9296 37.7936 48.9749C37.9415 49.0653 38.1456 49.1872 38.3911 49.3321C38.8817 49.6217 39.5347 50.0013 40.2287 50.4015C41.6233 51.1999 43.053 52.057 43.4114 52.3097C44.17 52.8335 44.7906 53.565 45.3803 54.5788C47.1848 57.6623 50.4102 59.749 54.108 60.1963L54.1089 60.1964C56.2064 60.4586 57.3237 60.3696 58.2614 59.9341C59.7045 59.2594 60.4345 57.6999 60.0695 55.9423L60.0695 55.9421C59.7702 54.4939 59.0739 53.402 56.7537 50.8791C53.6644 47.5256 52.5829 45.8742 52.0096 43.4977L52.0096 43.4977C51.6517 42.0133 51.811 39.8851 52.402 38.1951L52.402 38.195C52.4713 37.9972 52.5041 37.867 52.5136 37.7771C52.5226 37.6926 52.509 37.6634 52.5021 37.6512ZM37.4953 48.3137C37.4954 48.3136 37.4966 48.3129 37.4984 48.3116C37.4961 48.3131 37.4951 48.3138 37.4953 48.3137ZM57.1214 50.5403L57.1215 50.5405C59.4454 53.0673 60.2296 54.2469 60.5591 55.8406C60.9648 57.7944 60.1534 59.6015 58.4732 60.387L58.4727 60.3873C57.4028 60.8844 56.1677 60.9576 54.0474 60.6926C50.201 60.2272 46.8353 58.0549 44.9488 54.8313L44.9484 54.8307C44.3825 53.8578 43.807 53.1902 43.1263 52.7205L43.1241 52.719C42.7911 52.4839 41.3829 51.6384 39.9803 50.8354L39.9796 50.835C39.2846 50.4343 38.6298 50.0536 38.1369 49.7627C37.8906 49.6173 37.684 49.4939 37.5328 49.4015C37.4573 49.3554 37.3945 49.3163 37.3471 49.2857C37.3101 49.2618 37.2664 49.2332 37.2373 49.2086C37.1369 49.1264 37.0751 49.0119 37.0373 48.9082C36.9979 48.8002 36.9761 48.6813 36.9699 48.5672C36.9637 48.4536 36.9724 48.3341 37.0016 48.2255C37.0284 48.1258 37.0814 48.0032 37.1888 47.9195C37.21 47.9019 37.2305 47.8894 37.2388 47.8843L37.2398 47.8836C37.2573 47.8729 37.2778 47.8614 37.2996 47.8496C37.3436 47.8258 37.4021 47.7959 37.472 47.7613C37.6124 47.6917 37.8064 47.5992 38.039 47.4905C38.5046 47.273 39.1296 46.9885 39.7997 46.689C41.1392 46.0902 42.4739 45.4473 42.7767 45.2718C43.0989 45.0801 43.4988 44.7383 43.8757 44.3427C44.2523 43.9476 44.5902 43.5154 44.7948 43.1537L44.7958 43.152C46.0903 40.9048 48.5229 38.7009 50.9995 37.5245L50.9998 37.5244C51.4852 37.2944 51.8791 37.1483 52.1827 37.106C52.3356 37.0846 52.4862 37.0865 52.6209 37.1335C52.7623 37.1829 52.8718 37.2774 52.9396 37.4092C53.0109 37.5375 53.0269 37.6786 53.0108 37.83C52.995 37.9784 52.9467 38.1524 52.874 38.3601C52.309 39.9759 52.1641 42.0052 52.4957 43.3805C53.0379 45.628 54.0453 47.2012 57.1214 50.5403Z" stroke="black" stroke-width="0.5"/>
<path d="M61.7035 41.7355C61.4601 41.9788 61.4297 42.0701 61.4703 42.5061C61.5311 43.1044 61.7846 43.5202 63.0015 45.0514C64.0257 46.3493 64.7659 47.5358 65.1715 48.5194C66.2464 51.1153 66.1349 53.5896 64.8268 56.2768C64.482 56.9866 64.3907 57.2503 64.482 57.3415C64.6239 57.4835 65.6177 56.4593 66.2768 55.4757C68.2644 52.5046 68.4874 48.5498 66.8447 45.2947C65.7698 43.145 64.0764 41.6543 62.5553 41.5225C62.028 41.4718 61.9469 41.4921 61.7035 41.7355Z" fill="white"/>
<path d="M49.9508 40.0015C48.5717 41.4313 47.7808 42.8611 47.294 44.737C47.0101 45.8423 47.0304 48.418 47.3346 49.5233C47.8517 51.4297 48.5717 52.7479 49.7378 53.9242C50.691 54.8977 51.5428 55.3743 52.4352 55.4554C52.9625 55.5061 53.0436 55.4858 53.287 55.2425C53.5304 54.9991 53.5608 54.9078 53.5202 54.4718C53.4594 53.8735 53.2059 53.4578 51.989 51.9164C50.0522 49.4625 49.2511 47.6879 49.1091 45.4773C49.0077 43.8954 49.3424 42.3946 50.1637 40.7012C50.5085 40.0015 50.5998 39.7277 50.5085 39.6364C50.4274 39.5553 50.2753 39.6567 49.9508 40.0015Z" fill="black"/>
<defs>
<filter id="filter0_dd_11_128" x="0.25" y="0.249817" width="116.5" height="106.5" filterUnits="userSpaceOnUse" color-interpolation-filters="sRGB">
<feFlood flood-opacity="0" result="BackgroundImageFix"/>
<feColorMatrix in="SourceAlpha" type="matrix" values="0 0 0 0 0 0 0 0 0 0 0 0 0 0 0 0 0 0 127 0" result="hardAlpha"/>
<feOffset dy="4"/>
<feGaussianBlur stdDeviation="2"/>
<feComposite in2="hardAlpha" operator="out"/>
<feColorMatrix type="matrix" values="0 0 0 0 0 0 0 0 0 0 0 0 0 0 0 0 0 0 0.25 0"/>
<feBlend mode="normal" in2="BackgroundImageFix" result="effect1_dropShadow_11_128"/>
<feColorMatrix in="SourceAlpha" type="matrix" values="0 0 0 0 0 0 0 0 0 0 0 0 0 0 0 0 0 0 127 0" result="hardAlpha"/>
<feOffset dy="4"/>
<feGaussianBlur stdDeviation="2"/>
<feComposite in2="hardAlpha" operator="out"/>
<feColorMatrix type="matrix" values="0 0 0 0 0 0 0 0 0 0 0 0 0 0 0 0 0 0 0.25 0"/>
<feBlend mode="normal" in2="effect1_dropShadow_11_128" result="effect2_dropShadow_11_128"/>
<feBlend mode="normal" in="SourceGraphic" in2="effect2_dropShadow_11_128" result="shape"/>
</filter>
<radialGradient id="paint0_radial_11_128" cx="0" cy="0" r="1" gradientUnits="userSpaceOnUse" gradientTransform="translate(58.4835 49.5246) rotate(25.0714) scale(60.0259 42.5274)">
<stop offset="0.378837" stop-color="#3AC1EE" stop-opacity="0.85"/>
<stop offset="0.578837" stop-color="#2A51C3"/>
</radialGradient>
<linearGradient id="paint1_linear_11_128" x1="5" y1="49.5" x2="112" y2="49.5" gradientUnits="userSpaceOnUse">
<stop offset="0.153837" stop-color="#00F2FF" stop-opacity="0.9"/>
<stop offset="0.578837" stop-color="#0687FF"/>
</linearGradient>
<linearGradient id="paint2_linear_11_128" x1="5" y1="49.5" x2="112" y2="49.5" gradientUnits="userSpaceOnUse">
<stop offset="0.153837" stop-color="#00F2FF" stop-opacity="0.9"/>
<stop offset="0.578837" stop-color="#0687FF"/>
</linearGradient>
</defs>
</svg>
